<svg width="37" height="50" viewBox="0 0 37 50" fill="none" xmlns="http://www.w3.org/2000/svg">
<g id="Group 33660">
<path id="Vector" d="M24.8099 7.02069C20.8668 5.88739 20.1893 5.06143 19.2583 0.216095C19.234 0.0912401 19.1267 0 19 0C18.8733 0 18.766 0.0912401 18.7417 0.216095C17.8107 5.06143 17.1332 5.88739 13.1901 7.02069C13.078 7.0543 13 7.15995 13 7.28C13 7.40005 13.078 7.5057 13.1901 7.53931C17.1332 8.67261 17.8058 9.49858 18.7417 14.3439C18.766 14.4688 18.8733 14.56 19 14.56C19.1267 14.56 19.234 14.4688 19.2583 14.3439C20.1893 9.49858 20.8668 8.67261 24.8099 7.53931C24.922 7.5057 25 7.40005 25 7.28C25 7.15995 24.922 7.0543 24.8099 7.02069Z" fill="#F72BB7"/>
<path id="Vector_2" d="M9.84159 22.8552C6.55565 21.91 5.99106 21.2212 5.21527 17.1802C5.19496 17.0761 5.10561 17 5 17C4.89439 17 4.80504 17.0761 4.78473 17.1802C4.00894 21.2212 3.44435 21.91 0.158408 22.8552C0.0649878 22.8832 0 22.9713 0 23.0714C0 23.1716 0.0649878 23.2597 0.158408 23.2877C3.44435 24.2328 4.00487 24.9217 4.78473 28.9626C4.80504 29.0668 4.89439 29.1429 5 29.1429C5.10561 29.1429 5.19496 29.0668 5.21527 28.9626C5.99106 24.9217 6.55565 24.2328 9.84159 23.2877C9.93501 23.2597 10 23.1716 10 23.0714C10 22.9713 9.93501 22.8832 9.84159 22.8552Z" fill="#F72BB7"/>
<path id="Vector_3" d="M36.6198 34.0524C28.7336 31.784 27.3786 30.1308 25.5167 20.4325C25.4679 20.1826 25.2535 20 25 20C24.7465 20 24.5321 20.1826 24.4833 20.4325C22.6214 30.1308 21.2665 31.784 13.3802 34.0524C13.156 34.1197 13 34.3311 13 34.5714C13 34.8117 13.156 35.0232 13.3802 35.0905C21.2665 37.3588 22.6117 39.0121 24.4833 48.7103C24.5321 48.9602 24.7465 49.1429 25 49.1429C25.2535 49.1429 25.4679 48.9602 25.5167 48.7103C27.3786 39.0121 28.7336 37.3588 36.6198 35.0905C36.844 35.0232 37 34.8117 37 34.5714C37 34.3311 36.844 34.1197 36.6198 34.0524Z" fill="#F72BB7"/>
</g>
</svg>
